<svg xmlns="http://www.w3.org/2000/svg" fill="none" viewBox="0 0 16 18"><path fill-rule="evenodd" clip-rule="evenodd" d="M8.13 2.066L5.929.82.89 3.684l2.204 1.244L8.13 2.066zM.263 11.959l5.98 3.423v-2.925s-3.368-1.898-3.462-1.96a.567.567 0 01-.315-.529V6.017L.262 4.772v7.187zm7.24 4.138l2.203 1.244v-7.124l-5.98-3.422v2.862s3.367 1.898 3.462 1.96a.601.601 0 01.314.529v3.951zm3.462 1.244L16 14.48V7.293l-5.036 2.862v7.187zM4.354 5.675l5.98 3.422 5.037-2.862L9.39 2.812 4.354 5.675z" fill="#333"/></svg>