<svg fill="none" xmlns="http://www.w3.org/2000/svg" viewBox="0 0 16 20"><path d="M7.374 19.15c1.82-1.012 5.347-3.727 3.293-9.89-1.29-3.87-1-6.426-.67-7.764.062-.251.144-.439-.062-.662-.206-.224-.613.088-.613.088-1.85.994-5.294 3.749-3.254 9.87 1.38 4.14.978 6.783.595 8.025 0 0-.1.29.047.425.148.134.382.065.664-.091zM13.198 16.556c1.303-.724 3.826-2.667 2.356-7.077-.922-2.768-.715-4.597-.48-5.554.045-.18.104-.314-.043-.474-.148-.16-.439.063-.439.063-1.323.712-3.787 2.683-2.328 7.062.987 2.962.7 4.853.426 5.742 0 0-.072.208.033.304.106.096.274.046.475-.066zM2.114 16.556C3.417 15.832 5.94 13.89 4.47 9.48c-.922-2.768-.715-4.597-.48-5.554.045-.18.104-.314-.043-.474-.148-.16-.439.063-.439.063-1.323.712-3.787 2.683-2.328 7.062.987 2.962.7 4.853.426 5.742 0 0-.072.208.033.304.106.096.274.046.475-.066z" fill="#333"/></svg>