<svg fill="none" xmlns="http://www.w3.org/2000/svg" viewBox="0 0 20 21"><path d="M5.823 7.864A2.785 2.785 0 003.139 9.89H0v1.519h3.14a2.785 2.785 0 005.366 0H20v-1.52H8.506a2.785 2.785 0 00-2.683-2.025zm0 4.05a1.266 1.266 0 110-2.53 1.266 1.266 0 010 2.53zM14.177.902a2.785 2.785 0 00-2.683 2.025H0v1.52h11.494a2.785 2.785 0 005.367 0H20v-1.52h-3.14A2.785 2.785 0 0014.177.902zm0 4.05a1.266 1.266 0 110-2.531 1.266 1.266 0 010 2.532zM14.177 14.826a2.784 2.784 0 00-2.683 2.025H0v1.519h11.494a2.785 2.785 0 005.367 0H20v-1.519h-3.14a2.785 2.785 0 00-2.684-2.025zm0 4.05a1.266 1.266 0 110-2.531 1.266 1.266 0 010 2.531z" fill="#333"/></svg>