<svg width="16" height="16" viewBox="0 0 16 16" fill="none" xmlns="http://www.w3.org/2000/svg">
<path d="M14.6756 0.071111L0.071111 14.6756C0.151111 14.9778 0.311111 15.2533 0.524444 15.4756C0.746667 15.6889 1.02222 15.8489 1.32444 15.9289L15.9378 1.32444C15.7689 0.711111 15.2889 0.231111 14.6756 0.071111ZM7.89333 0L0 7.89333V10.4089L10.4089 0H7.89333ZM1.77778 0C0.8 0 0 0.8 0 1.77778V3.55556L3.55556 0H1.77778ZM14.2222 16C14.7111 16 15.1556 15.8044 15.4756 15.4756C15.8044 15.1556 16 14.7111 16 14.2222V12.4444L12.4444 16H14.2222ZM5.59111 16H8.10667L16 8.10667V5.59111L5.59111 16Z" fill="#333333"/>
</svg>
