<svg xmlns="http://www.w3.org/2000/svg" viewBox="0 0 250 250"><defs><style>.cls-1{fill:#1891f6;}.cls-2{fill:#fff;}</style></defs><g id="Layer_2" data-name="Layer 2"><g id="Layer1"><g id="Cercle"><circle class="cls-1" cx="125" cy="125" r="125"/></g><path id="Helice" class="cls-2" d="M207.33,125.39a11.24,11.24,0,0,0-8.83-4.26H150a44.67,44.67,0,0,0-15.2-80.52,11.29,11.29,0,0,0-13.76,11V99.91A44.68,44.68,0,0,0,40.55,115.1a11.3,11.3,0,0,0,11,13.77H100a44.67,44.67,0,0,0,15.19,80.52,11.3,11.3,0,0,0,13.77-11V150.09a44.66,44.66,0,0,0,80.52-15.19A11.19,11.19,0,0,0,207.33,125.39ZM128.81,51.64a3.54,3.54,0,0,1,1.35-2.8,3.49,3.49,0,0,1,2.18-.78,3.27,3.27,0,0,1,.8.09A37.12,37.12,0,0,1,153.69,61a36.49,36.49,0,0,1,8.2,23.22,37,37,0,0,1-33.08,36.74Zm-80,68.15a3.52,3.52,0,0,1-.69-3,37,37,0,0,1,72.79,4.32H51.58A3.6,3.6,0,0,1,48.78,119.79Zm72.48,78.57a3.57,3.57,0,0,1-1.34,2.8,3.46,3.46,0,0,1-3,.69,37,37,0,0,1,4.32-72.78ZM202,133.19a37,37,0,0,1-12.82,20.55A36.5,36.5,0,0,1,165.94,162a37,37,0,0,1-36.74-33.08h69.3a3.56,3.56,0,0,1,2.79,1.34A3.46,3.46,0,0,1,202,133.19Z"/></g></g></svg>